<?xml version="1.0" encoding="UTF-8"?>
<svg width="20px" height="20px" viewBox="0 0 20 20" version="1.1" xmlns="http://www.w3.org/2000/svg" xmlns:xlink="http://www.w3.org/1999/xlink">
    <!-- Generator: Sketch 55.2 (78181) - https://sketchapp.com -->
    <title>git-hub-icon</title>
    <desc>Created with Sketch.</desc>
    <g id="Home" stroke="none" stroke-width="1" fill="none" fill-rule="evenodd">
        <g transform="translate(-1152.000000, -25.000000)" fill-rule="nonzero" id="Header">
            <g>
                <g id="Nav" transform="translate(847.000000, 0.000000)">
                    <path d="M313.874306,25.0692153 C309.274306,25.5692153 305.574306,29.2692153 305.074306,33.7692153 C304.474306,38.7692153 307.574306,43.0692153 311.974306,44.4692153 L311.974306,42.1692153 C311.974306,42.1692153 311.574306,42.2692153 311.074306,42.2692153 C309.674306,42.2692153 309.074306,41.0692153 308.974306,40.3692153 C308.874306,39.9692153 308.674306,39.6692153 308.374306,39.3692153 C308.074306,39.2692153 307.974306,39.2692153 307.974306,39.1692153 C307.974306,38.9692153 308.274306,38.9692153 308.374306,38.9692153 C308.974306,38.9692153 309.474306,39.6692153 309.674306,39.9692153 C310.174306,40.7692153 310.774306,40.9692153 311.074306,40.9692153 C311.474306,40.9692153 311.774306,40.8692153 311.974306,40.7692153 C312.074306,40.0692153 312.374306,39.3692153 312.974306,38.9692153 C310.674306,38.4692153 308.974306,37.1692153 308.974306,34.9692153 C308.974306,33.8692153 309.474306,32.7692153 310.174306,31.9692153 C310.074306,31.7692153 309.974306,31.2692153 309.974306,30.5692153 C309.974306,30.1692153 309.974306,29.5692153 310.274306,28.9692153 C310.274306,28.9692153 311.674306,28.9692153 313.074306,30.2692153 C313.574306,30.0692153 314.274306,29.9692153 314.974306,29.9692153 C315.674306,29.9692153 316.374306,30.0692153 316.974306,30.2692153 C318.274306,28.9692153 319.774306,28.9692153 319.774306,28.9692153 C319.974306,29.5692153 319.974306,30.1692153 319.974306,30.5692153 C319.974306,31.3692153 319.874306,31.7692153 319.774306,31.9692153 C320.474306,32.7692153 320.974306,33.7692153 320.974306,34.9692153 C320.974306,37.1692153 319.274306,38.4692153 316.974306,38.9692153 C317.574306,39.4692153 317.974306,40.3692153 317.974306,41.2692153 L317.974306,44.5692153 C322.074306,43.2692153 324.974306,39.4692153 324.974306,35.0692153 C324.974306,29.0692153 319.874306,24.3692153 313.874306,25.0692153 Z" id="git-hub-icon"></path>
                </g>
            </g>
        </g>
    </g>
</svg>