<?xml version="1.0" encoding="UTF-8"?>
<svg width="23px" height="24px" viewBox="0 0 23 24" version="1.1" xmlns="http://www.w3.org/2000/svg" xmlns:xlink="http://www.w3.org/1999/xlink">
    <!-- Generator: Sketch 55.2 (78181) - https://sketchapp.com -->
    <title>angular</title>
    <desc>Created with Sketch.</desc>
    <g id="Home" stroke="none" stroke-width="1" fill="none" fill-rule="evenodd">
        <g transform="translate(-1254.000000, -1939.000000)" fill="#50E3C2" fill-rule="nonzero" id="Skills">
            <g transform="translate(0.000000, 1612.000000)">
                <g id="Tools-Grouping" transform="translate(182.000000, 207.000000)">
                    <g id="Front-End" transform="translate(1071.000000, 0.000000)">
                        <path d="M12.4421485,120.001937 C12.38482,120.002204 12.3270105,120.011693 12.2719647,120.030476 L1.35064997,123.831587 C1.11898807,123.911938 0.973905892,124.143315 1.00416803,124.386977 L2.73046331,138.538726 C2.75081199,138.706212 2.8497754,138.853772 2.99847729,138.934123 L12.2067445,143.938749 C12.2839652,143.981012 12.3698272,144.001937 12.455396,144.001937 C12.5414866,144.001937 12.6283436,143.980515 12.706086,143.93773 L21.9612299,138.864827 C22.1083665,138.783954 22.208398,138.636891 22.2282249,138.470449 L23.9535014,124.319719 C23.983763,124.075013 23.8372133,123.841598 23.6029426,123.762291 L12.6113128,120.028438 C12.5565279,120.010177 12.4994765,120.001682 12.4421485,120.001937 Z M12.4788346,122.609729 L19.261728,137.219038 L16.9464134,137.219038 L15.4952656,134.092548 L9.46240358,134.092548 L8.01125569,137.219038 L5.6959411,137.219038 L12.4788346,122.609729 Z M12.4788346,127.566459 L10.433572,132.001427 L14.5240971,132.001427 L12.4788346,127.566459 Z" id="angular"></path>
                    </g>
                </g>
            </g>
        </g>
    </g>
</svg>