<?xml version="1.0" encoding="UTF-8"?>
<svg width="22px" height="24px" viewBox="0 0 22 24" version="1.1" xmlns="http://www.w3.org/2000/svg" xmlns:xlink="http://www.w3.org/1999/xlink">
    <!-- Generator: Sketch 55.2 (78181) - https://sketchapp.com -->
    <title>css-3</title>
    <desc>Created with Sketch.</desc>
    <g id="Home" stroke="none" stroke-width="1" fill="none" fill-rule="evenodd">
        <g transform="translate(-1254.000000, -1979.000000)" fill="#50E3C2" fill-rule="nonzero" id="Skills">
            <g transform="translate(0.000000, 1612.000000)">
                <g id="Tools-Grouping" transform="translate(182.000000, 207.000000)">
                    <g id="Front-End" transform="translate(1071.000000, 0.000000)">
                        <path d="M22.4632437,160.333556 C22.2729265,160.121202 22.0014741,160 21.717,160 L2.31866945,160 C2.03419533,160 1.76274291,160.121202 1.57242571,160.333556 C1.38210852,160.54591 1.29195827,160.829382 1.32301002,161.111853 L3.52868615,180.967947 C3.5727596,181.371619 3.85823539,181.709182 4.24888648,181.820367 L11.741374,183.960935 C11.8315242,183.986978 11.9246795,184 12.0168331,184 C12.1089866,184 12.2021419,183.986978 12.2922922,183.960935 L19.7847796,181.820367 C20.1754307,181.709182 20.4599048,181.371619 20.50498,180.967947 L22.7116578,161.111853 C22.7437112,160.829382 22.6535609,160.54591 22.4632437,160.333556 Z M17.5430434,170.090818 L17.0962988,177.38798 L12.0498881,179.03773 L7.00347746,177.38798 L6.8121586,173.898164 L9.3664157,173.898164 L9.43052254,175.484808 L12.0498881,176.373289 L14.6692538,175.484808 L14.8605726,172.63005 L9.23920368,172.63005 L9.11199166,170.09182 L14.9887863,170.09182 L15.1801052,167.553589 L6.36441236,167.553589 L6.17309349,165.014357 L17.862576,165.014357 L17.5430434,170.090818 Z" id="css-3"></path>
                    </g>
                </g>
            </g>
        </g>
    </g>
</svg>