<?xml version="1.0" encoding="UTF-8"?>
<svg width="24px" height="24px" viewBox="0 0 24 24" version="1.1" xmlns="http://www.w3.org/2000/svg" xmlns:xlink="http://www.w3.org/1999/xlink">
    <!-- Generator: Sketch 55.2 (78181) - https://sketchapp.com -->
    <title>git</title>
    <desc>Created with Sketch.</desc>
    <g id="Home" stroke="none" stroke-width="1" fill="none" fill-rule="evenodd">
        <g transform="translate(-1253.000000, -2019.000000)" fill="#50E3C2" fill-rule="nonzero" id="Skills">
            <g transform="translate(0.000000, 1612.000000)">
                <g id="Tools-Grouping" transform="translate(182.000000, 207.000000)">
                    <g id="Front-End" transform="translate(1071.000000, 0.000000)">
                        <path d="M23.3702446,210.481658 L13.5183421,200.629755 C13.1005434,200.209919 12.5502719,200 11.9999997,200 C11.4497284,200 10.8994564,200.209919 10.4816576,200.629755 L8.53328805,202.578125 L10.9442936,204.98913 C11.7452446,204.518342 12.7887228,204.620245 13.4755434,205.307065 C14.1623639,205.993886 14.2622284,207.037364 13.7914402,207.836277 L16.1616849,210.206522 C16.9626359,209.735734 18.0061141,209.837636 18.6929347,210.524457 C19.5081521,211.339674 19.5081521,212.660326 18.6929347,213.475543 C17.8777173,214.290761 16.5570651,214.290761 15.7418477,213.475543 C15.0550272,212.788723 14.9531247,211.745245 15.4239129,210.944294 L13.0536682,208.574049 C12.884511,208.673913 12.7072011,208.747283 12.521739,208.794158 L12.521739,215.203804 C13.4205161,215.436142 14.0869564,216.245245 14.0869564,217.217391 C14.0869564,218.370924 13.1535327,219.304348 11.9999997,219.304348 C10.8464675,219.304348 9.91304336,218.370924 9.91304336,217.217391 C9.91304336,216.245245 10.5794837,215.436142 11.4782607,215.203804 L11.4782607,208.794158 C11.1297552,208.704484 10.7975545,208.53125 10.5244564,208.258152 C9.83763588,207.571332 9.73777188,206.527853 10.2085595,205.72894 L7.79551605,203.315897 L0.629755185,210.481658 C-0.209918728,211.319294 -0.209918728,212.680707 0.629755185,213.518342 L10.4816576,223.370245 C10.8994564,223.790081 11.4497284,224 11.9999997,224 C12.5502719,224 13.1005434,223.790081 13.5183421,223.370245 L23.3702446,213.518342 C24.2099185,212.680707 24.2099185,211.319294 23.3702446,210.481658 Z" id="git"></path>
                    </g>
                </g>
            </g>
        </g>
    </g>
</svg>