<?xml version="1.0" encoding="UTF-8"?>
<svg width="22px" height="24px" viewBox="0 0 22 24" version="1.1" xmlns="http://www.w3.org/2000/svg" xmlns:xlink="http://www.w3.org/1999/xlink">
    <!-- Generator: Sketch 55.2 (78181) - https://sketchapp.com -->
    <title>html-5</title>
    <desc>Created with Sketch.</desc>
    <g id="Home" stroke="none" stroke-width="1" fill="none" fill-rule="evenodd">
        <g transform="translate(-1254.000000, -1899.000000)" fill="#50E3C2" fill-rule="nonzero" id="Skills">
            <g transform="translate(0.000000, 1612.000000)">
                <g id="Tools-Grouping" transform="translate(182.000000, 207.000000)">
                    <g id="Front-End" transform="translate(1071.000000, 0.000000)">
                        <path d="M22.1462452,80.3335559 C21.9559281,80.121202 21.6844756,80 21.4000015,80 L2.00167096,80 C1.71719684,80 1.44574441,80.121202 1.25542722,80.3335559 C1.06511002,80.5459098 0.974959773,80.8293823 1.00601153,81.1118531 L3.21168765,100.967947 C3.25576111,101.371619 3.5412369,101.709182 3.93188799,101.820367 L11.4243755,103.960935 C11.5145257,103.986978 11.607681,104 11.6998346,104 C11.7919882,104 11.8851434,103.986978 11.9752937,103.960935 L19.4677811,101.820367 C19.8584322,101.709182 20.1429064,101.371619 20.1879815,100.967947 L22.3946593,81.1118531 C22.4267127,80.8293823 22.3365624,80.5459098 22.1462452,80.3335559 Z M17.3392336,87.442404 L8.39432538,87.442404 L8.60667931,89.9886477 L17.1238746,89.9886477 L16.4848095,97.5111853 L11.7038412,99.0317195 L11.6567628,99.0166945 L6.92888298,97.509182 L6.67045226,94.4440735 L8.98631203,94.4440735 L9.08748064,95.6350584 L11.728883,96.2170284 L14.3242085,95.6340568 L14.5996676,92.4156928 L6.49616178,92.4156928 L5.8691167,85.0083472 L17.5475808,85.0083472 L17.3392336,87.442404 Z" id="html-5"></path>
                    </g>
                </g>
            </g>
        </g>
    </g>
</svg>