<?xml version="1.0" encoding="UTF-8"?>
<svg width="22px" height="22px" viewBox="0 0 22 22" version="1.1" xmlns="http://www.w3.org/2000/svg" xmlns:xlink="http://www.w3.org/1999/xlink">
    <!-- Generator: Sketch 55.2 (78181) - https://sketchapp.com -->
    <title>javascript</title>
    <desc>Created with Sketch.</desc>
    <g id="Home" stroke="none" stroke-width="1" fill="none" fill-rule="evenodd">
        <g transform="translate(-1254.000000, -1860.000000)" fill="#50E3C2" fill-rule="nonzero" id="Skills">
            <g transform="translate(0.000000, 1612.000000)">
                <g id="Tools-Grouping" transform="translate(182.000000, 207.000000)">
                    <g id="Front-End" transform="translate(1071.000000, 0.000000)">
                        <path d="M21.604539,41 L2.39750757,41 C1.62611633,41 1,41.6261163 1,42.3975076 L1,61.6024924 C1,62.3738842 1.62611633,63 2.39750757,63 L21.6024924,63 C22.3738842,63 23,62.3738842 23,61.604539 L23,42.3975076 C23,41.6261163 22.3738842,41 21.604539,41 Z M13.047619,57.858073 C13.047619,59.9512651 11.8199405,60.9047619 10.0275298,60.9047619 C8.40699405,60.9047619 7.23865314,59.8182662 6.76190476,58.8095238 L8.40904005,57.8130579 C8.72619048,58.375744 9.20907738,58.8095238 9.9047619,58.8095238 C10.5697543,58.8095238 10.952381,58.549665 10.952381,57.5388766 L10.952381,50.952381 L13.047619,50.952381 L13.047619,57.858073 Z M17.5920758,60.9047619 C15.7362354,60.9047619 14.6824778,59.9696802 14.0952381,58.8095238 L15.6666667,57.7619048 C16.0943079,58.4616818 16.5608258,59.1307662 17.5470611,59.1307662 C18.375744,59.1307662 18.8095238,58.717448 18.8095238,58.1445314 C18.8095238,57.4611234 18.359375,57.2176342 17.4488469,56.8186385 L16.9495909,56.6037949 C15.5070687,55.9899556 14.5474329,55.2206104 14.5474329,53.5918901 C14.5474329,52.0941223 15.6912202,50.952381 17.4754464,50.952381 C18.7460936,50.952381 19.6586683,51.3943452 20.3175222,52.5524556 L18.7624627,53.5530135 C18.4187127,52.9371282 18.0504091,52.6956845 17.4754464,52.6956845 C16.8902532,52.6956845 16.5199031,53.0680806 16.5199031,53.5530135 C16.5199031,54.1525298 16.8902532,54.3939735 17.7475817,54.766369 L18.2468377,54.9812127 C19.9471726,55.7075893 20.9047619,56.450335 20.9047619,58.1199778 C20.9047619,59.918527 19.4908853,60.9047619 17.5920758,60.9047619 Z" id="javascript"></path>
                    </g>
                </g>
            </g>
        </g>
    </g>
</svg>