<?xml version="1.0" encoding="UTF-8"?>
<svg width="22px" height="24px" viewBox="0 0 22 24" version="1.1" xmlns="http://www.w3.org/2000/svg" xmlns:xlink="http://www.w3.org/1999/xlink">
    <!-- Generator: Sketch 55.2 (78181) - https://sketchapp.com -->
    <title>jest</title>
    <desc>Created with Sketch.</desc>
    <g id="Home" stroke="none" stroke-width="1" fill="none" fill-rule="evenodd">
        <g transform="translate(-1254.000000, -2059.000000)" fill="#50E3C2" fill-rule="nonzero" id="Skills" stroke="#50E3C2" stroke-width="0.75">
            <g transform="translate(0.000000, 1612.000000)">
                <g id="Tools-Grouping" transform="translate(182.000000, 207.000000)">
                    <g id="Front-End" transform="translate(1071.000000, 0.000000)">
                        <path d="M21.1731911,251.831884 C21.1731911,250.588034 20.2770121,249.550156 19.0965022,249.328465 L21.9202792,241 L8.5726046,241 L11.4006614,249.345351 C10.2612371,249.598945 9.40653273,250.617214 9.40653273,251.831884 C9.40653273,252.744092 9.8885879,253.545339 10.611087,253.995568 C10.2635715,254.513262 9.85147082,255.000453 9.37922016,255.445935 C8.63034227,256.152483 7.79594725,256.688307 6.89642227,257.040803 C5.99043876,256.471674 5.60744032,255.398469 6.00522334,254.463461 L6.03634877,254.390316 C6.05580217,254.344562 6.07533338,254.298652 6.09478677,254.252742 C7.08986683,253.905771 7.80614083,252.958547 7.80614083,251.846591 C7.80614083,250.441666 6.66313716,249.29874 5.25821298,249.29874 C3.85328879,249.29874 2.71036293,250.441666 2.71036293,251.846591 C2.71036293,252.555706 3.00177479,253.197823 3.47083505,253.660192 C3.38578481,253.841497 3.296377,254.02576 3.20447916,254.214536 C2.77557071,255.095463 2.28946928,256.093967 2.10559579,257.202733 C1.74041666,259.404779 2.32938765,261.165078 3.76403662,262.15938 C4.63461495,262.762746 5.51865503,263 6.40829769,263 C8.08354625,263 9.77809257,262.158368 11.4355219,261.335101 C12.62926,260.742239 13.863539,260.129146 15.0828,259.828474 C15.5364531,259.716578 16.0032568,259.649269 16.4974509,259.577992 C17.4774351,259.436605 18.4908791,259.290471 19.3885366,258.770598 C20.428982,258.167932 21.1412875,257.156978 21.342669,255.997011 C21.5155708,255.001231 21.3074195,254.003972 20.7999193,253.158138 C21.0365504,252.771561 21.1731911,252.31744 21.1731911,251.831884 L21.1731911,251.831884 Z M20.1729753,251.831884 C20.1729753,252.685265 19.4787225,253.379596 18.6252632,253.379596 C17.7719595,253.379596 17.0776289,252.685265 17.0776289,251.831884 C17.0776289,250.978502 17.7719595,250.284249 18.6252632,250.284249 C19.4787225,250.284249 20.1729753,250.978502 20.1729753,251.831884 L20.1729753,251.831884 Z M20.5250039,242.000216 L18.0314678,249.354611 C17.9233847,249.380523 17.8180251,249.413204 17.7157003,249.4525 L15.2524336,244.427455 L12.782008,249.422775 C12.6752478,249.385969 12.565375,249.3557 12.452701,249.33329 L9.96772431,242.000216 L20.5250039,242.000216 L20.5250039,242.000216 Z M11.9543828,250.284249 C12.8077643,250.284249 13.5020171,250.978502 13.5020171,251.831884 C13.5020171,252.685265 12.8077643,253.379596 11.9543828,253.379596 C11.1010791,253.379596 10.4067485,252.685265 10.4067485,251.831884 C10.4067485,250.978502 11.1010791,250.284249 11.9543828,250.284249 L11.9543828,250.284249 Z M5.25821298,250.298956 C6.11167232,250.298956 6.80592508,250.993209 6.80592508,251.846591 C6.80592508,252.699972 6.11167232,253.394303 5.25821298,253.394303 C4.40490926,253.394303 3.71057869,252.699972 3.71057869,251.846591 C3.71057869,250.993209 4.40490926,250.298956 5.25821298,250.298956 L5.25821298,250.298956 Z M20.35716,255.825899 C20.2065908,256.693365 19.6707665,257.451191 18.8871837,257.905 C18.1567476,258.328073 17.2814227,258.454364 16.3546629,258.58797 C15.8582123,258.659558 15.3447983,258.733637 14.8432898,258.857361 C13.5171907,259.184333 12.232722,259.822327 10.9905838,260.439311 C8.50482897,261.673979 6.35803011,262.74018 4.33386546,261.337279 C2.8511277,260.309673 2.91960365,258.408298 3.0923498,257.366375 C3.25241233,256.401097 3.68521146,255.512077 4.10377071,254.652315 C4.17621515,254.503535 4.24655863,254.35779 4.31557927,254.212979 C4.5231859,254.296006 4.74394303,254.352577 4.97403778,254.378255 C4.54800843,255.784425 5.21806117,257.313306 6.624386,258.035805 L6.81681898,258.134706 L7.02069056,258.062106 C8.13249099,257.66619 9.15690677,257.030765 10.0656138,256.173492 C10.6530285,255.619382 11.1578052,255.006289 11.5728628,254.351176 C11.6973646,254.369929 11.8247454,254.379812 11.9543828,254.379812 C13.359307,254.379812 14.5023107,253.236886 14.5023107,251.831884 C14.5023107,251.076314 14.1713695,250.396846 13.6472172,249.929809 L15.2484651,246.69183 L16.865976,249.991515 C16.3806527,250.455751 16.0774132,251.10884 16.0774132,251.831884 C16.0774132,253.236886 17.220339,254.379812 18.6252632,254.379812 C19.165056,254.379812 19.6657864,254.210645 20.0781984,253.923202 C20.3645523,254.509371 20.4712348,255.168919 20.35716,255.825899 L20.35716,255.825899 Z" id="jest"></path>
                    </g>
                </g>
            </g>
        </g>
    </g>
</svg>