<?xml version="1.0" encoding="UTF-8"?>
<svg width="26px" height="23px" viewBox="0 0 26 23" version="1.1" xmlns="http://www.w3.org/2000/svg" xmlns:xlink="http://www.w3.org/1999/xlink">
    <!-- Generator: Sketch 55.2 (78181) - https://sketchapp.com -->
    <title>react</title>
    <desc>Created with Sketch.</desc>
    <g id="Home" stroke="none" stroke-width="1" fill="none" fill-rule="evenodd">
        <g transform="translate(-1252.000000, -1819.000000)" fill="#50E3C2" fill-rule="nonzero" id="Skills" stroke="#50E3C2" stroke-width="0.25">
            <g transform="translate(0.000000, 1612.000000)">
                <g id="Tools-Grouping" transform="translate(182.000000, 207.000000)">
                    <g id="Front-End" transform="translate(1071.000000, 0.000000)">
                        <path d="M7.63281267,1.00242726 C7.461476,0.996404131 7.29245867,1.00158253 7.126302,1.01805226 C6.68321733,1.0619716 6.26019067,1.18893093 5.86458333,1.40867726 C5.073344,1.8481836 4.54466933,2.61619093 4.26692733,3.52326093 C3.98918533,4.43032893 3.93692333,5.4913476 4.065104,6.65737493 C4.09818267,6.95828093 4.14458867,7.26739093 4.20182267,7.58185426 C4.04454667,7.6401576 3.88202533,7.69576626 3.73177067,7.7576356 C2.65110867,8.20261426 1.75292753,8.73704026 1.09244793,9.3800316 C0.431968333,10.0230223 0,10.8112203 0,11.6743023 C0,12.5373843 0.431968333,13.3255823 1.09244793,13.9685729 C1.75292753,14.6115643 2.65110867,15.1459903 3.73177067,15.5909689 C3.88202533,15.6528383 4.04454667,15.7084469 4.20182267,15.7667503 C4.14448267,16.0816623 4.09822533,16.3912456 4.065104,16.6925316 C3.93692267,17.8585183 3.98918067,18.9183209 4.26692733,19.8253436 C4.54467333,20.7323669 5.073364,21.5017343 5.86458333,21.9412296 C7.44725067,22.8205363 9.47337933,22.1993703 11.436198,20.8253436 C11.6238693,20.6939689 11.8120133,20.5484789 12,20.4021669 C12.1880087,20.5484789 12.3761307,20.6939689 12.563802,20.8253436 C14.5266207,22.1993703 16.5514473,22.8205363 18.1341147,21.9412296 C18.9253533,21.5017236 19.4540287,20.7324129 19.7317707,19.8253436 C20.0095127,18.9182756 20.0617747,17.8585589 19.933594,16.6925316 C19.9005153,16.3916256 19.8541093,16.0825536 19.7968747,15.7680523 C19.9546993,15.7095663 20.1174733,15.6530449 20.2682293,15.5909689 C21.3488913,15.1459903 22.2470727,14.6115643 22.907552,13.9685729 C23.568032,13.3255823 24,12.5373843 24,11.6743023 C24,10.8112203 23.568032,10.0230223 22.907552,9.3800316 C22.2470727,8.73704026 21.3488913,8.20261426 20.2682293,7.7576356 C20.1179747,7.69576626 19.9554533,7.6401576 19.7981773,7.58185426 C19.855456,7.26739493 19.901806,6.95827226 19.934896,6.65737493 C20.063122,5.49138093 20.0108533,4.4316756 19.7330727,3.52456293 C19.4552927,2.6174496 18.92544,1.84832626 18.1341147,1.40867726 C17.738448,1.18885053 17.315528,1.06201873 16.872396,1.01805226 C15.5429987,0.886152931 14.035916,1.49274086 12.563802,2.52326093 C12.3756453,2.65497493 12.1871927,2.80101093 11.998698,2.9477396 C11.8109847,2.80169293 11.6235987,2.65573426 11.436198,2.52456293 C10.1480507,1.62292293 8.83216733,1.04458913 7.63281267,1.00242726 Z M16.7096353,2.3552916 C17.0036827,2.37707626 17.2649793,2.45070226 17.4869793,2.5740416 C17.9309867,2.82072626 18.2539053,3.24761293 18.4583333,3.9151876 C18.6627613,4.58276226 18.7233153,5.47545293 18.6093747,6.5115416 C18.5862993,6.72137226 18.5514993,6.94064626 18.5143227,7.1612816 C17.586798,6.9028216 16.5717793,6.6990516 15.4934893,6.55971893 C14.7091453,5.52719626 13.881606,4.6090156 13.0403647,3.83185426 C13.1361553,3.7604496 13.2331273,3.6822096 13.3281253,3.61570826 C14.2077153,2.9999716 15.025546,2.61609226 15.7343747,2.4477396 C16.0887893,2.3635636 16.415588,2.3335076 16.7096353,2.3552916 Z M7.28906267,2.35659426 C7.58281133,2.33511026 7.90990867,2.36485293 8.26432267,2.4490416 C8.97315133,2.6174196 9.79093467,3.0013076 10.6705727,3.61701026 C10.7653013,3.6833156 10.8615147,3.7619816 10.9570313,3.83315626 C10.116102,4.61029826 9.290604,5.5288636 8.50651067,6.56102093 C7.428294,6.70035293 6.413146,6.9028376 5.48567733,7.1612816 C5.44852933,6.94063893 5.41369267,6.72138226 5.39062533,6.5115416 C5.276722,5.47540293 5.33726533,4.5814416 5.54166667,3.9138856 C5.74607067,3.2463296 6.06926,2.8205356 6.51302067,2.5740416 C6.73491333,2.45078826 6.995314,2.3780776 7.28906267,2.35659426 Z M11.998698,4.68471893 C12.5498313,5.18362626 13.1012747,5.76114426 13.6432293,6.39435426 C13.1047573,6.36313826 12.5591327,6.34096893 12,6.34096893 C11.4404173,6.34096893 10.8943553,6.36308893 10.3554687,6.39435426 C10.896972,5.76149093 11.448034,5.1834756 11.998698,4.68471893 Z M12,7.67430226 C12.9599893,7.67430226 13.8861253,7.73051026 14.7721353,7.8253436 C15.162224,8.36499626 15.5415327,8.93329293 15.9010413,9.53237493 C16.3309253,10.2487289 16.7077173,10.9662043 17.0390627,11.6743023 C16.7076047,12.3826196 16.33115,13.0995009 15.9010413,13.8162296 C15.5415287,14.4153176 15.1621253,14.9835056 14.7721353,15.5232609 C13.8861253,15.6180943 12.9599893,15.6743023 12,15.6743023 C11.0395453,15.6743023 10.112958,15.6181829 9.22656267,15.5232609 C8.83646667,14.9835056 8.45716933,14.4153176 8.097656,13.8162296 C7.668092,13.1004076 7.291968,12.3843516 6.96093733,11.6769063 C7.29252133,10.9680836 7.66862933,10.2495609 8.09895867,9.53237493 L8.097656,9.53237493 C8.45716933,8.93328693 8.83646667,8.36509893 9.22656267,7.8253436 C10.112958,7.7304216 11.0395453,7.67430226 12,7.67430226 Z M16.563802,8.08445826 C17.147946,8.19393893 17.705712,8.32203626 18.2252607,8.46857293 C18.0879373,8.98150226 17.921462,9.5095116 17.720052,10.0532083 C17.5073333,9.65144226 17.2855687,9.2482736 17.0442707,8.84617693 C16.8879207,8.58563693 16.7261653,8.3350096 16.563802,8.08445826 Z M7.434896,8.08576093 C7.27271667,8.33603626 7.11058467,8.58595826 6.95442733,8.84617693 C6.713132,9.24831893 6.49136333,9.65141826 6.278646,10.0532083 C6.077388,9.50955693 5.91193933,8.98147026 5.77473933,8.46857293 C6.29383667,8.3221636 6.85130933,8.19518026 7.434896,8.08576093 Z M4.50651067,8.89044826 C4.75021533,9.78919093 5.078648,10.7221949 5.494792,11.6743023 C5.07866667,12.6264789 4.75025733,13.5593703 4.50651067,14.4581563 C4.41881333,14.4244083 4.324192,14.3927349 4.23958333,14.3578963 C3.269316,13.9583743 2.50865133,13.4864783 2.02213533,13.0128436 C1.53561933,12.5392103 1.33333333,12.0998849 1.33333333,11.6743023 C1.33333333,11.2487196 1.53561933,10.8093943 2.02213533,10.3357609 C2.50865133,9.86212693 3.269316,9.39023026 4.23958333,8.99070826 C4.324192,8.9558696 4.41881333,8.92419626 4.50651067,8.89044826 Z M19.4934893,8.89044826 C19.5811867,8.92419626 19.675808,8.9558696 19.7604167,8.99070826 C20.730684,9.39023026 21.4913487,9.86212626 21.9778647,10.3357609 C22.4643807,10.8093936 22.6666667,11.2487196 22.6666667,11.6743023 C22.6666667,12.0998849 22.4643807,12.5392103 21.9778647,13.0128436 C21.4913487,13.4864776 20.730684,13.9583743 19.7604167,14.3578963 C19.675446,14.3928843 19.5802727,14.4242683 19.4921873,14.4581563 C19.2484427,13.5593323 18.9200313,12.6264723 18.503906,11.6743023 C18.920268,10.7221369 19.2495833,9.78923626 19.4934893,8.89044826 Z M12,9.67430226 C10.9033267,9.67430226 10,10.5776289 10,11.6743023 C10,12.7709756 10.9033267,13.6743023 12,13.6743023 C13.0966733,13.6743023 14,12.7709756 14,11.6743023 C14,10.5776289 13.0966733,9.67430226 12,9.67430226 Z M17.720052,13.2966983 C17.9214233,13.8404149 18.0866513,14.3683863 18.2239587,14.8813336 C17.7048733,15.0276836 17.1473433,15.1547789 16.563802,15.2641463 C16.7261653,15.0135769 16.887922,14.7629649 17.0442707,14.5024276 C17.2855307,14.1003943 17.5073167,13.6983576 17.720052,13.2966983 Z M6.278646,13.2980003 C6.49118,13.6993169 6.713372,14.1007349 6.95442733,14.5024276 C7.11058467,14.7626463 7.27271667,15.0125683 7.434896,15.2628436 C6.851912,15.1535369 6.294676,15.0275569 5.77604133,14.8813336 C5.91321667,14.3689029 6.07752867,13.8411609 6.278646,13.2980003 Z M5.48567733,16.1873229 C6.413146,16.4457669 7.428294,16.6482516 8.50651067,16.7875836 C9.29123067,17.8205656 10.118014,18.7392096 10.9596353,19.5167503 C10.8638513,19.5881549 10.7668727,19.6663949 10.6718747,19.7328963 C8.91269467,20.9643703 7.40102,21.2692243 6.51302067,20.7758649 C6.06924,20.5293596 5.746066,20.1022169 5.54166667,19.4347189 C5.33726733,18.7672209 5.27672267,17.8744609 5.39062533,16.8383649 C5.413738,16.6281209 5.44840533,16.4084309 5.48567733,16.1873229 Z M18.5143227,16.1873229 C18.5515953,16.4084423 18.586262,16.6281123 18.6093747,16.8383649 C18.7232773,17.8745043 18.6614347,18.7671629 18.4570313,19.4347189 C18.2526273,20.1022749 17.93074,20.5293709 17.4869793,20.7758649 C16.59898,21.2692243 15.0873053,20.9643703 13.3281253,19.7328963 C13.2331273,19.6663949 13.1361553,19.5881549 13.0403647,19.5167503 C13.881604,18.7393576 14.7091353,17.8216276 15.4934893,16.7888856 C16.5717793,16.6495529 17.586798,16.4457829 18.5143227,16.1873229 Z M10.3554687,16.9542503 C10.8943553,16.9855156 11.4404173,17.0076356 12,17.0076356 C12.5595827,17.0076356 13.1056447,16.9855156 13.6445313,16.9542503 C13.1026913,17.5877589 12.5510573,18.1660589 12,18.6651876 C11.448874,18.1661303 10.8974307,17.5876496 10.3554687,16.9542503 Z" id="react"></path>
                    </g>
                </g>
            </g>
        </g>
    </g>
</svg>