<?xml version="1.0" encoding="UTF-8"?>
<svg width="26px" height="25px" viewBox="0 0 26 25" version="1.1" xmlns="http://www.w3.org/2000/svg" xmlns:xlink="http://www.w3.org/1999/xlink">
    <!-- Generator: Sketch 55.2 (78181) - https://sketchapp.com -->
    <title>redux</title>
    <desc>Created with Sketch.</desc>
    <g id="Home" stroke="none" stroke-width="1" fill="none" fill-rule="evenodd">
        <g transform="translate(-1252.000000, -2099.000000)" fill="#50E3C2" fill-rule="nonzero" id="Skills" stroke="#50E3C2" stroke-width="0.75">
            <g transform="translate(0.000000, 1612.000000)">
                <g id="Tools-Grouping" transform="translate(182.000000, 207.000000)">
                    <g id="Front-End" transform="translate(1071.000000, 0.000000)">
                        <path d="M16.6294643,296.911866 C14.9497089,300.363 11.987231,302.684116 8.07798187,303.447641 C7.4671617,303.600347 6.85634152,303.661429 6.24552134,303.661429 C3.98548669,303.661429 1.9392391,302.714657 0.931385812,301.187607 C-0.412418575,299.141359 -0.870533708,294.804536 3.55791257,291.59773 C3.6495356,292.086386 3.83278165,292.758288 3.95494568,293.155322 C3.37466652,293.582896 2.45843625,294.438044 1.87815709,295.598602 C1.05354985,297.217276 1.14517287,298.835949 2.12248516,300.332459 C2.79438735,301.340312 3.86332266,301.951132 5.23766805,302.134378 C6.91742354,302.348165 8.59717902,302.042755 10.2158525,301.187607 C12.5980512,299.935425 14.1861836,298.438916 15.2245779,296.392668 C14.9497089,296.117799 14.7664628,295.720766 14.7359218,295.262651 C14.7053808,294.31588 15.438365,293.521814 16.3851363,293.491273 L16.4462183,293.491273 C17.3624486,293.491273 18.1259738,294.224257 18.1565148,295.140487 C18.1870558,296.056717 17.5151536,296.820243 16.6294643,296.911866 Z M22.0046819,293.12478 C24.2952576,295.720766 24.3563396,298.774867 23.4706503,300.546246 C22.6460431,302.164919 20.4776314,303.783593 17.5456946,303.783593 C16.2629722,303.783593 14.9191678,303.447641 13.6059045,302.836821 C14.0334786,302.531411 14.6442988,302.042755 14.9802499,301.737345 C15.59107,302.012214 16.7516284,302.378706 17.9732687,302.378706 C19.8668113,302.378706 21.3022387,301.493017 22.1573869,299.874343 C22.7071251,298.805408 22.7376661,297.553227 22.218469,296.270504 C21.6076488,294.682372 20.5081725,293.369109 18.981122,292.361255 C16.9959564,291.047992 14.7970038,290.37609 12.4758871,290.37609 L11.926149,290.37609 C11.6818209,290.956369 11.1015417,291.383943 10.4296396,291.414484 L10.3685575,291.414484 C9.45232727,291.414484 8.68880205,290.6815 8.65826104,289.76527 C8.62772003,288.818498 9.36070424,288.024432 10.3074755,287.993891 L10.3685575,287.993891 C11.0099187,287.993891 11.5901979,288.360383 11.865067,288.910121 L12.3537231,288.910121 C16.2629722,288.910121 19.6835652,290.406631 22.0046819,293.12478 Z M6.48984942,297.431063 C6.45930841,297.095112 6.55093143,296.759161 6.70363648,296.545373 C4.99333998,293.582896 4.07710972,289.826352 5.48199612,285.917102 C6.48984942,282.985166 9.02475315,281 11.7734439,281 C14.7053808,281 17.7594817,283.565445 18.1259738,288.513088 C17.6678586,288.360383 16.9959564,288.146596 16.5989233,288.054973 C16.5073003,286.4363 15.1329549,282.404886 11.895608,282.465968 C10.7350496,282.496509 9.02475315,283.046248 8.13906389,284.176265 C7.07012858,285.489528 6.45930841,287.077661 6.33714437,288.910121 C6.15389832,291.353402 6.67309547,293.613437 7.92527683,295.690225 C7.98635885,295.659684 8.07798187,295.659684 8.13906389,295.659684 L8.20014591,295.659684 C9.11637617,295.659684 9.87990139,296.392668 9.9104424,297.308899 C9.94098341,298.25567 9.2079992,299.049736 8.26122793,299.080277 L8.20014591,299.080277 C7.28391564,299.080277 6.52039042,298.347293 6.48984942,297.431063 Z" id="redux"></path>
                    </g>
                </g>
            </g>
        </g>
    </g>
</svg>