<?xml version="1.0" encoding="UTF-8"?>
<svg width="24px" height="26px" viewBox="0 0 24 26" version="1.1" xmlns="http://www.w3.org/2000/svg" xmlns:xlink="http://www.w3.org/1999/xlink">
    <!-- Generator: Sketch 55.2 (78181) - https://sketchapp.com -->
    <title>styled-components</title>
    <desc>Created with Sketch.</desc>
    <g id="Home" stroke="none" stroke-width="1" fill="none" fill-rule="evenodd">
        <g transform="translate(-1253.000000, -2138.000000)" fill="#50E3C2" fill-rule="nonzero" id="Skills" stroke="#50E3C2" stroke-width="0.25">
            <g transform="translate(0.000000, 1612.000000)">
                <g id="Tools-Grouping" transform="translate(182.000000, 207.000000)">
                    <g id="Front-End" transform="translate(1071.000000, 0.000000)">
                        <path d="M12,320 C11.0625,320 10.171875,320.0625 9.375,320.15625 C6.871094,320.453125 5,322.613281 5,325.125 L5,327.5 C4.042969,328.230469 3.054688,329.308594 2.34375,331.125 C1.519531,333.226563 1,336.269531 1,341 L1,344 L3,344 L3,341 C3,336.417969 3.503906,333.589844 4.1875,331.84375 C4.4375,331.203125 4.71875,330.742188 5,330.34375 L5,339.71875 L5.6875,339.9375 C5.6875,339.9375 8.777344,341 12,341 C15.222656,341 18.3125,339.9375 18.3125,339.9375 L19,339.71875 L19,330.34375 C19.28125,330.742188 19.5625,331.203125 19.8125,331.84375 C20.496094,333.589844 21,336.417969 21,341 L21,344 L23,344 L23,341 C23,336.269531 22.480469,333.226563 21.65625,331.125 C20.945313,329.308594 19.957031,328.230469 19,327.5 L19,325.125 C19,322.613281 17.128906,320.453125 14.625,320.15625 C13.828125,320.0625 12.9375,320 12,320 Z M12,322 C12.847656,322 13.648438,322.070313 14.375,322.15625 C15.875,322.332031 17,323.601563 17,325.125 L17,338.25 C16.195313,338.488281 14.25,339 12,339 C9.75,339 7.804688,338.488281 7,338.25 L7,325.125 C7,323.601563 8.125,322.332031 9.625,322.15625 C10.351563,322.070313 11.152344,322 12,322 Z" id="styled-components"></path>
                    </g>
                </g>
            </g>
        </g>
    </g>
</svg>