<?xml version="1.0" encoding="UTF-8"?>
<svg width="24px" height="16px" viewBox="0 0 24 16" version="1.1" xmlns="http://www.w3.org/2000/svg" xmlns:xlink="http://www.w3.org/1999/xlink">
    <!-- Generator: Sketch 55.2 (78181) - https://sketchapp.com -->
    <title>personas</title>
    <desc>Created with Sketch.</desc>
    <g id="Home" stroke="none" stroke-width="1" fill="none" fill-rule="evenodd">
        <g transform="translate(-182.000000, -2041.000000)" fill="#50E3C2" fill-rule="nonzero" id="Skills">
            <g transform="translate(0.000000, 1612.000000)">
                <g id="Tools-Grouping" transform="translate(182.000000, 345.000000)">
                    <g id="Left-Icons">
                        <path d="M12,84 C10.0670034,84 8.5,85.5670034 8.5,87.5 C8.5,89.4329966 10.0670034,91 12,91 C13.9329966,91 15.5,89.4329966 15.5,87.5 C15.5,85.5670034 13.9329966,84 12,84 Z M4.5,87 C3.11928813,87 2,88.1192881 2,89.5 C2,90.8807119 3.11928813,92 4.5,92 C5.16304122,92 5.79892601,91.7366079 6.26776695,91.267767 C6.7366079,90.798926 7,90.1630412 7,89.5 C7,88.8369588 6.7366079,88.201074 6.26776695,87.732233 C5.79892601,87.2633921 5.16304122,87 4.5,87 Z M19.5,87 C18.1192881,87 17,88.1192881 17,89.5 C17,90.8807119 18.1192881,92 19.5,92 C20.1630412,92 20.798926,91.7366079 21.267767,91.267767 C21.7366079,90.798926 22,90.1630412 22,89.5 C22,88.1192881 20.8807119,87 19.5,87 Z M12,93 C9.664,93 5,94.173 5,96.5 L5,100 L19,100 L19,96.5 C19,94.173 14.336,93 12,93 Z M3.8984375,94.052734 C2.3174375,94.296734 0,95.389078 0,96.705078 L0,100 L3,100 L3,96.5 C3,95.539 3.3454375,94.732734 3.8984375,94.052734 Z M20.101562,94.052734 C20.654563,94.732734 21,95.539 21,96.5 L21,100 L24,100 L24,96.705078 C24,95.389078 21.682562,94.296734 20.101562,94.052734 Z" id="personas"></path>
                    </g>
                </g>
            </g>
        </g>
    </g>
</svg>