<?xml version="1.0" encoding="UTF-8"?>
<svg width="22px" height="18px" viewBox="0 0 22 18" version="1.1" xmlns="http://www.w3.org/2000/svg" xmlns:xlink="http://www.w3.org/1999/xlink">
    <!-- Generator: Sketch 55.2 (78181) - https://sketchapp.com -->
    <title>user-flows</title>
    <desc>Created with Sketch.</desc>
    <g id="Home" stroke="none" stroke-width="1" fill="none" fill-rule="evenodd">
        <g transform="translate(-559.000000, -1960.000000)" fill="#50E3C2" fill-rule="nonzero" id="Skills">
            <g transform="translate(0.000000, 1612.000000)">
                <g id="Tools-Grouping" transform="translate(182.000000, 345.000000)">
                    <g id="Middle-Icons" transform="translate(376.000000, 0.000000)">
                        <polygon id="user-flows" points="9 3 9 4 9 9 11 9 11 11 3 11 3 15 1 15 1 16 1 21 7 21 7 15 5 15 5 13 11 13 11 15 9 15 9 16 9 21 15 21 15 15 13 15 13 13 19 13 19 15 17 15 17 16 17 21 23 21 23 15 21 15 21 11 13 11 13 9 15 9 15 3"></polygon>
                    </g>
                </g>
            </g>
        </g>
    </g>
</svg>